<svg xmlns="http://www.w3.org/2000/svg" viewBox="0 0 640 760" role="img" aria-labelledby="title desc">
  <title id="title">Kuula Microfinance Limited</title>
  <desc id="desc">Kuula K growth mark, company name, and Access Grow Prosper tagline.</desc>
  <defs>
    <linearGradient id="bg" x1="0" y1="0" x2="1" y2="1"><stop offset="0" stop-color="#0B5E3A"/><stop offset="1" stop-color="#064A2E"/></linearGradient>
    <linearGradient id="gold" x1="0" y1="0" x2="1" y2="1"><stop offset="0" stop-color="#FFD766"/><stop offset="1" stop-color="#F2C94C"/></linearGradient>
  </defs>
  <g transform="translate(130 24)">
    <circle cx="190" cy="190" r="186" fill="url(#bg)"/>
    <circle cx="190" cy="190" r="166" fill="none" stroke="#fff" stroke-opacity=".08" stroke-width="10"/>
    <path fill="#fff" d="M93 82h62v92l84-92h80L216 191l109 126h-81l-69-83-20 22v61H93V82z"/>
    <path fill="url(#gold)" d="M286 92c42 33 69 84 69 141 0 50-21 96-53 128l-43-48c21-22 33-51 33-85 0-37-16-70-42-92l36-44z"/>
  </g>
  <text x="320" y="518" text-anchor="middle" fill="#064A2E" font-family="Poppins,Arial,sans-serif" font-size="112" font-weight="800" letter-spacing="-3">Kuula</text>
  <text x="320" y="574" text-anchor="middle" fill="#0B5E3A" font-family="Poppins,Arial,sans-serif" font-size="25" font-weight="700" letter-spacing="5">MICROFINANCE LIMITED</text>
  <text x="320" y="646" text-anchor="middle" fill="#244C3A" font-family="Poppins,Arial,sans-serif" font-size="31" font-weight="500">Access <tspan fill="#F2C94C">•</tspan> Grow <tspan fill="#F2C94C">•</tspan> Prosper</text>
</svg>
